<svg width="48" height="48" viewBox="0 0 48 48" fill="none" xmlns="http://www.w3.org/2000/svg">
  <!-- Background circle -->
  <circle cx="24" cy="24" r="24" fill="url(#gradient)"/>
  
  <!-- Heart shape -->
  <path d="M24 38c-1.5-3-4-6-7-8-3-2-6-3-8-3s-5 1-8 3c-3 2-5.5 5-7 8 0-6 3-12 8-15 5-3 11-3 16 0 5 3 8 9 8 15z" 
        fill="white" transform="translate(16,6)"/>
  
  <!-- Connecting lines representing community -->
  <circle cx="16" cy="16" r="2" fill="white"/>
  <circle cx="32" cy="16" r="2" fill="white"/>
  <circle cx="16" cy="32" r="2" fill="white"/>
  <circle cx="32" cy="32" r="2" fill="white"/>
  
  <line x1="16" y1="16" x2="32" y2="16" stroke="white" stroke-width="1.5"/>
  <line x1="16" y1="16" x2="16" y2="32" stroke="white" stroke-width="1.5"/>
  <line x1="32" y1="16" x2="32" y2="32" stroke="white" stroke-width="1.5"/>
  <line x1="16" y1="32" x2="32" y2="32" stroke="white" stroke-width="1.5"/>
  
  <!-- Diagonal connections -->
  <line x1="16" y1="16" x2="32" y2="32" stroke="white" stroke-width="1"/>
  <line x1="32" y1="16" x2="16" y2="32" stroke="white" stroke-width="1"/>
  
  <defs>
    <linearGradient id="gradient" x1="0%" y1="0%" x2="100%" y2="100%">
      <stop offset="0%" style="stop-color:#1e3a8a;stop-opacity:1" />
      <stop offset="100%" style="stop-color:#3b82f6;stop-opacity:1" />
    </linearGradient>
  </defs>
</svg>